<?xml version="1.0" encoding="utf-8"?>
<!-- Svg Vector Icons : http://www.onlinewebfonts.com/icon -->
<!DOCTYPE svg PUBLIC "-//W3C//DTD SVG 1.1//EN" "http://www.w3.org/Graphics/SVG/1.1/DTD/svg11.dtd">
<svg version="1.1" xmlns="http://www.w3.org/2000/svg" xmlns:xlink="http://www.w3.org/1999/xlink" x="0px" y="0px" viewBox="0 0 256 256" enable-background="new 0 0 256 256" xml:space="preserve">
<metadata> Svg Vector Icons : http://www.onlinewebfonts.com/icon </metadata>
<g><g><path fill="#fff" d="M154.3,90.8c0-14.9-12.2-26.9-27.1-26.9c-15,0-27.1,12.1-27.1,26.9s12.2,26.9,27.1,26.9C142.1,117.7,154.3,105.6,154.3,90.8z"/><path fill="#fff" d="M127.2,124.4c-28.4,0-51.5,23-51.5,51.2v8.7h103v-8.8C178.7,147.4,155.6,124.4,127.2,124.4z"/><path fill="#fff" d="M128,10C62.8,10,10,62.8,10,128c0,65.2,52.8,118,118,118c65.2,0,118-52.8,118-118C246,62.8,193.2,10,128,10z M56.9,166.2c-0.3,2.2-0.6,4.5-0.6,6.7h-8.3c-1.9,0-3.4-1.5-3.4-3.3v-9.4c0-17.2,9.5-32.7,24.8-40.6l3.1-1.6l-2.4-2.6c-4.6-5.1-7.2-11.7-7.2-18.5c0-14,10.5-25.6,24.1-27.4c-1.6,2.5-3,5.2-4,8c-8,3.2-13.3,10.7-13.3,19.3c0,8.2,4.8,15.6,12.3,19l0.1,0l0.1,0c1.4,0.5,2.4,1.8,2.4,3.1c0,1.3-1,2.6-2.4,3.1l-1.1,0.3c-17.4,4.4-29.6,19.9-29.6,37.8v6H56.9z M185.5,187.7c0,1.9-1.5,3.4-3.4,3.4H72.3c-1.9,0-3.4-1.5-3.4-3.4v-12.1c0-11.8,3.6-23.1,10.3-32.8c6.6-9.4,15.7-16.7,26.4-21l4.4-1.7l-3.7-2.9c-8.3-6.5-13-16.1-13-26.4c0-18.5,15.2-33.6,33.9-33.6c18.7,0,33.9,15.1,33.9,33.6c0,10.4-4.7,20-13,26.4l-3.7,2.9l4.4,1.7c10.7,4.2,19.9,11.5,26.4,20.9c6.7,9.7,10.3,21,10.3,32.8L185.5,187.7L185.5,187.7z M209.8,169.5c0,1.9-1.5,3.3-3.4,3.3h-8.3c-0.1-2.2-0.3-4.5-0.7-6.7h5.5v-6c0-17.9-12.2-33.4-29.6-37.8l-1.1-0.3c-1.4-0.5-2.4-1.8-2.4-3.1c0-1.3,0.9-2.5,2.4-3.1l0.1,0l0.1,0c7.5-3.4,12.3-10.8,12.3-19c0-8.6-5.3-16.2-13.3-19.3c-1-2.8-2.4-5.5-4-8c13.6,1.8,24.1,13.4,24.1,27.4c0,6.8-2.6,13.4-7.2,18.5l-2.4,2.6l3.1,1.6c15.3,7.9,24.8,23.4,24.8,40.6L209.8,169.5L209.8,169.5z"/></g></g>
</svg>