<?xml version="1.0" encoding="utf-8"?>
<svg version="1.1" x="0px" y="0px" viewBox="12 -3 167 167" enable-background="new 0 0 167 167" xmlns="http://www.w3.org/2000/svg">
  <g>
    <g>
      <path fill="#fff" d="M120.2,34.7c9.8,0,17.7,7.9,17.7,17.7c0,9.8-7.9,17.7-17.7,17.7c-9.8,0-17.7-7.9-17.7-17.7C102.5,42.7,110.4,34.7,120.2,34.7z"/>
      <path fill="#fff" d="M116.8,93.8l0,0.2h0C116.8,93.9,116.8,93.9,116.8,93.8L116.8,93.8z"/>
      <path fill="#fff" d="M 132.486 145.075 C 132.486 145.075 133 141 133.3 138.6 C 136.1 143.6 139.537 144.577 142.585 137.748 C 146.829 128.24 162.26 112.985 161.269 109.061 C 161.269 109.061 150.5 87 144.2 80.7 C 143 79.5 141.169 78.183 140.136 77.692 L 140.142 77.694 C 131.942 74.794 105.3 69.2 95.3 71.7 C 87.4 72.3 79.089 75.703 71.189 76.203 C 67.189 70.203 59.67 64.757 57.27 57.957 C 55.47 52.957 53.697 47.203 49.797 48.403 L 26.258 11.465 C 25.558 10.365 25.4 9.7 24.3 10.3 C 23.2 11 23.996 11.889 24.596 12.989 L 47.449 49.693 C 45.649 51.593 49.193 57.382 50.393 60.582 C 53.393 68.882 67.259 86.152 67.259 86.152 C 67.259 86.152 78.204 88.112 89.204 86.912 C 89.804 89.712 90.3 94.1 90.3 94.1 L 85.477 141.115 C 90.888 155.245 131.586 168.975 132.486 145.075 Z M 138.5 101.5 L 137.873 95.436 C 140.373 98.636 147.037 106.4 149.137 109.9 C 145.537 116.1 138.081 125.25 134.581 131.45 C 136.181 120.35 137.8 106.7 138.5 101.5 Z"/>
    </g>
  </g>
</svg>