<?xml version="1.0" encoding="utf-8"?>
<!-- Svg Vector Icons : http://www.onlinewebfonts.com/icon -->
<!DOCTYPE svg PUBLIC "-//W3C//DTD SVG 1.1//EN" "http://www.w3.org/Graphics/SVG/1.1/DTD/svg11.dtd">
<svg version="1.1" xmlns="http://www.w3.org/2000/svg" xmlns:xlink="http://www.w3.org/1999/xlink" x="0px" y="0px" viewBox="0 0 256 256" enable-background="new 0 0 256 256" xml:space="preserve">
<metadata> Svg Vector Icons : http://www.onlinewebfonts.com/icon </metadata>
<g><g><g><path fill="#000000" d="M119.5,20c-26.2,5.6-39.7,33.9-27.9,58.2c3.2,6.7,11.7,15,18.5,18.2c6.3,3,10.8,3.9,18.1,3.9c6.7,0,12.2-1.3,18.4-4.3c6.1-3,14.8-11.6,17.8-17.9c8.8-18.1,3.5-39.9-12.6-51.3c-5.4-3.8-9.3-5.5-15.9-6.9C129.7,18.7,125.7,18.7,119.5,20z"/><path fill="#000000" d="M93.8,101.7c-17.7,6.3-30.4,19.7-35.6,37.5c-1.3,4.5-1.5,7.2-1.8,23.8l-0.3,18.8h31.1h31.1v-10.8c0-10-0.1-11-1.7-14.3c-1.3-2.8-1.8-5.1-2.1-11.2c-0.4-7.1-0.3-7.9,1.1-10.9c4.2-8.6,14.9-10.3,21.7-3.4c3,3.2,4,7,4.1,16.4c0.1,7.5,0,7.9-1.8,10.6c-1.9,2.7-1.9,3-1.9,13.3v10.5h31.1h31.1v-15c0-16.6-1-25.5-3.7-33.3c-4.9-14.1-15.6-24.6-31.7-31.1l-4.8-1.9l-4.2,3.2c-8.3,6.2-17,9.2-26.7,9.2c-9.7,0-18.4-3-26.7-9.2c-2.3-1.7-4.3-3.2-4.4-3.1C97.4,100.4,95.8,101,93.8,101.7z"/><path fill="#000000" d="M122.3,134.8c-2.3,2-2.3,2.1-2.1,7.8c0.2,8.4,0.8,11.2,2.6,13.3c1.6,1.6,1.7,2.3,1.7,7.9c0,3.3-0.2,10.3-0.5,15.5l-0.4,9.5H66.8H10v24.2V237h118h118v-24.2v-24.2h-56.9h-56.9v-15.8c0-13.6,0.1-15.9,1-16.2c2.3-0.9,3.2-4.8,2.5-12.1c-0.3-3.8-1-7.5-1.4-8.3C132.1,132.2,126,131.5,122.3,134.8z"/></g></g></g>
</svg>