<?xml version="1.0" encoding="UTF-8"?>
<svg xmlns="http://www.w3.org/2000/svg" xmlns:xlink="http://www.w3.org/1999/xlink"   viewBox="0 0 192 192" version="1.1">
<g>
<path style=" stroke:none;fill-rule:nonzero;fill-opacity:1;" fill="#0b45c3" d="M 11 182.234375 C 13.148438 184.285156 16.519531 184.210938 18.574219 182.0625 L 36.164062 163.660156 L 54.257812 181.03125 C 56.40625 183.082031 59.777344 183.007812 61.832031 180.859375 C 63.882812 178.710938 63.808594 175.339844 61.660156 173.285156 L 43.566406 155.988281 L 85.488281 112.058594 C 96.285156 121.792969 110.667969 127.621094 126.339844 127.269531 C 158.804688 126.539062 184.609375 99.625 183.875 67.085938 C 183.144531 34.621094 156.230469 8.816406 123.691406 9.550781 C 91.226562 10.28125 65.421875 37.195312 66.15625 69.734375 C 66.449219 82.707031 70.917969 94.609375 78.183594 104.121094 L 10.753906 174.65625 C 8.777344 176.800781 8.851562 180.175781 11 182.226562 Z M 76.882812 69.574219 C 76.285156 42.957031 97.394531 20.949219 123.9375 20.351562 C 150.554688 19.753906 172.5625 40.863281 173.160156 67.40625 C 173.757812 93.949219 152.648438 116.03125 126.105469 116.628906 C 99.488281 117.226562 77.484375 96.191406 76.882812 69.574219 Z M 76.882812 69.574219 "/>
</g>
</svg>
