<svg version="1.1" xmlns="http://www.w3.org/2000/svg" xmlns:xlink="http://www.w3.org/1999/xlink" x="0px" y="0px" viewBox="0 0 256 256" enable-background="new 0 0 256 256" xml:space="preserve">
<metadata> Svg Vector Icons : http://www.onlinewebfonts.com/icon </metadata>
<g><g><path fill="#0C46C4" opacity="0.8" d="M191.9,118.2V73.9c0-35.3-28.6-63.9-63.9-63.9S64.1,38.6,64.1,73.9v44.4c-11.8,0-21.3,9.5-21.3,21.3v85.2c0,11.8,9.5,21.3,21.3,21.3h127.8c11.8,0,21.3-9.5,21.3-21.3v-85.2C213.2,127.8,203.7,118.2,191.9,118.2L191.9,118.2z M170.6,118.2H85.4V73.9c0-23.5,19-42.6,42.6-42.6c23.5,0,42.6,19,42.6,42.6L170.6,118.2L170.6,118.2L170.6,118.2z"/></g></g>
</svg>