<svg width="14" height="16" viewBox="0 0 14 16" fill="none" xmlns="http://www.w3.org/2000/svg">
<path opacity="0.8" d="M9.37915 7.37097C8.65649 8.09363 7.77759 8.45496 6.74243 8.45496C5.70728 8.45496 4.8186 8.09363 4.07642 7.37097C3.35376 6.62878 2.99243 5.74011 2.99243 4.70496C2.99243 3.6698 3.35376 2.79089 4.07642 2.06824C4.8186 1.32605 5.70728 0.954956 6.74243 0.954956C7.77759 0.954956 8.65649 1.32605 9.37915 2.06824C10.1213 2.79089 10.4924 3.6698 10.4924 4.70496C10.4924 5.74011 10.1213 6.62878 9.37915 7.37097ZM9.37915 9.39246C10.4534 9.39246 11.3713 9.78308 12.1331 10.5643C12.9143 11.326 13.3049 12.244 13.3049 13.3182V14.5487C13.3049 14.9393 13.1682 15.2714 12.8948 15.5448C12.6213 15.8182 12.2893 15.955 11.8987 15.955H1.58618C1.19556 15.955 0.863525 15.8182 0.590088 15.5448C0.31665 15.2714 0.179932 14.9393 0.179932 14.5487V13.3182C0.179932 12.244 0.560791 11.326 1.32251 10.5643C2.10376 9.78308 3.03149 9.39246 4.10571 9.39246H4.60376C5.28735 9.70496 6.00024 9.86121 6.74243 9.86121C7.48462 9.86121 8.19751 9.70496 8.8811 9.39246H9.37915Z" fill="#0C46C4"/>
</svg>
