<?xml version="1.0" encoding="utf-8"?>
<!-- Svg Vector Icons : http://www.onlinewebfonts.com/icon -->
<!DOCTYPE svg PUBLIC "-//W3C//DTD SVG 1.1//EN" "http://www.w3.org/Graphics/SVG/1.1/DTD/svg11.dtd">
<svg version="1.1" xmlns="http://www.w3.org/2000/svg" xmlns:xlink="http://www.w3.org/1999/xlink" x="0px" y="0px" viewBox="0 0 256 256" enable-background="new 0 0 256 256" xml:space="preserve">
<metadata> Svg Vector Icons : http://www.onlinewebfonts.com/icon </metadata>
<g><g><g><path fill="#000000" d="M117.2,10.4c-27.4,2.5-52.8,14.5-72.5,34.2c-27.1,27.1-39.5,65.5-33.1,103c1.9,11.5,5.2,21.5,10.6,32.5c5.7,11.6,13,21.8,22.2,31.1c26.3,26.4,63.1,38.8,99.8,33.8c44.2-6.1,81.6-37.2,95.8-79.8c2.1-6.3,3.9-13.9,5-21.3c1.1-7,1.1-24.3,0-31.9c-1.8-12.8-5.5-24.5-11.2-36.1c-5.9-12-13-21.9-22.9-31.7C186.4,19.7,151.8,7.2,117.2,10.4z M134.3,51.6c5.7,1.8,11.2,7.1,13,12.7c2.5,7.6,0.5,15.7-5.3,21.3c-4.8,4.6-10.9,6.5-17.2,5.4c-11.1-2-18.6-12.4-16.7-23.2C110.2,55.4,122.4,47.9,134.3,51.6z M134.9,101.1c3.5,1.6,6.3,4.4,8,7.8l1.2,2.6l0.2,35.6l0.2,35.6l1.3,1.1c1.6,1.4,2.9,1.1,4.5-1.2c2.4-3.2,4.3-9.8,5.3-17.7c0.4-3.1,2.2-4.9,4.9-4.9c4,0,5.2,2,4.6,7.9c-2.2,19.8-13.6,33.2-31.5,36.8c-5.1,1-9.2,0.7-12.6-1c-3.2-1.5-6.4-4.9-7.9-8c-1-2.2-1-2.3-1.3-37.7c-0.2-32.9-0.3-35.6-1.1-36.7c-1.6-2.5-4.1-1.1-6.5,3.7c-1.5,3-2.9,8.2-3.3,11.9c-0.4,4.1-1,5.7-2.7,7.1c-1.2,1-1.8,1.2-3.3,1c-1.1-0.1-2.3-0.7-3-1.5c-1.1-1.1-1.2-1.5-1.1-4.1c0.1-1.6,0.4-4.5,0.8-6.6c3-15.8,11.9-26.6,25.6-31.2C125,99.1,130,98.9,134.9,101.1z"/></g></g></g>
</svg>