<?xml version="1.0" encoding="utf-8"?>
<!-- Svg Vector Icons : http://www.onlinewebfonts.com/icon -->
<!DOCTYPE svg PUBLIC "-//W3C//DTD SVG 1.1//EN" "http://www.w3.org/Graphics/SVG/1.1/DTD/svg11.dtd">
<svg version="1.1" xmlns="http://www.w3.org/2000/svg" xmlns:xlink="http://www.w3.org/1999/xlink" x="0px" y="0px" viewBox="0 0 256 256" enable-background="new 0 0 256 256" xml:space="preserve">
<metadata> Svg Vector Icons : http://www.onlinewebfonts.com/icon </metadata>
<g><g><g><path fill="#fff" d="M103.2,21.3C88.6,23.2,77,30.8,71.4,42.2c-3.5,7.2-4,9.9-4.3,22.3l-0.2,10.9L65.3,77c-2.1,2.1-2.7,4.4-2.7,10.2c0,9.1,3.7,18.5,10.3,25.8c1,1.1,2.3,3.3,3,5.2c5.8,16.2,18.5,27.3,32.9,28.3c10.1,0.7,22.1-5.2,29-14.4c3-3.9,5.9-9.4,7.5-14c0.6-1.8,1.9-4,2.9-5.2c6.6-7.3,10.3-16.7,10.3-25.8c0-5.8-0.6-8.2-2.7-10.2l-1.5-1.5v-7.8c0-11.5-1.7-18-6.1-23c-1.1-1.3-2.1-2.8-2.1-3.3c0-1.7-1.8-6.2-3.4-8.5C136.9,24.7,118.7,19.4,103.2,21.3z"/><path fill="#fff" d="M190.5,127.6c-6.4,1.4-13.2,7.1-16.6,14.3c-3.1,6.4-3.7,9.5-3.7,17.2c0,5.5,0.2,7.3,1.1,10.5c1.5,5.4,4.6,11.1,7.7,14.3c1.8,1.9,2.4,2.9,2,3.2c-1.5,1.2-6.6,3.8-12.8,6.5c-14.8,6.5-16.9,8.1-20.5,15.1c-3.2,6-5.6,16.1-4.4,18.6c1.1,2.4,5.4,3.7,18.4,5.6c11.5,1.7,19,2.2,32.9,2.2c14.4,0,21.5-0.5,34.2-2.4c15.5-2.4,18-3.6,17.2-8.6c-1.2-8.7-4.4-16.7-8.4-21.2c-2.5-2.8-4.4-3.9-16.2-9.2c-6-2.7-13-6.2-14-6.9c-0.1-0.1,0.9-1.2,2.2-2.6c7.2-7.4,10.8-19.7,9.1-31.1c-1.9-11.9-8.9-21.8-17.7-24.9C198.2,127.4,193.3,127,190.5,127.6z"/><path fill="#fff" d="M67.3,136.6c-24.7,9.9-32.2,13.9-38.9,20.7c-9.7,9.6-16.8,27-18.2,44.2c-0.4,5.6,0,6.2,5.1,8.2c15.4,5.9,36.4,9.5,66.8,11.5c10,0.6,49.2,0.8,52.9,0.2c2.3-0.3,2.3-0.3,2.7-2.6c0.5-3.3,2.1-7.9,4.3-12.5c1.5-3.1,3-5.1,5.5-7.7c3.9-4,7.3-6,17-10.2c3.6-1.6,6.8-3,7-3.2c0.1-0.2-0.5-1.8-1.6-3.5c-4.3-7-5.6-12.4-5.6-22.7c0-7.9,0.5-11.2,2.5-16.3c0.2-0.6-1.2-1.4-7.7-4.1c-4.4-1.8-9.4-3.8-11.2-4.5l-3.2-1.2l-1.2,1.6c-2.4,3.2-7.2,7.9-10.2,10c-4,2.9-10.4,5.8-14.8,6.8c-4.5,1-11.7,1-15.8,0c-8.8-2.2-17.9-8.2-23.7-15.7c-1.1-1.5-2.2-2.7-2.4-2.7C76.3,133,72.1,134.7,67.3,136.6z"/></g></g></g>
</svg>