<?xml version="1.0" encoding="utf-8"?>
<!-- Svg Vector Icons : http://www.onlinewebfonts.com/icon -->
<!DOCTYPE svg PUBLIC "-//W3C//DTD SVG 1.1//EN" "http://www.w3.org/Graphics/SVG/1.1/DTD/svg11.dtd">
<svg version="1.1" xmlns="http://www.w3.org/2000/svg" xmlns:xlink="http://www.w3.org/1999/xlink" x="0px" y="0px" viewBox="0 0 256 256" enable-background="new 0 0 256 256" xml:space="preserve">
<metadata> Svg Vector Icons : http://www.onlinewebfonts.com/icon </metadata>
<g><g><g><path fill="#fff" d="M94.7,10.4c-10.3,1.3-18.4,5.4-26.3,13.3C59.3,32.7,55,43,55,55.8c0,12.2,4.3,22.3,13.3,31.3c9.4,9.6,19,13.6,32.1,13.6c13.1,0,22.6-4,32.1-13.5c9-9,13.3-19.2,13.3-31.8c0-12.5-4.3-22.7-13.3-31.8c-4.7-4.8-7.1-6.4-12-8.8C111.6,10.6,103.7,9.2,94.7,10.4z"/><path fill="#fff" d="M90.8,110.6c-6.5,1.2-13.8,3.7-19.7,6.8c-26.2,13.8-43.4,43.7-44.7,77.8c-0.4,11.5,0.2,15.8,3.5,22.3c2.2,4.3,7.6,9.6,12,11.7l4,2h54.4h54.4l4.1-2c3.8-1.9,11.4-9,11.4-10.7c0-0.4-1.3-0.5-3.5-0.2c-2,0.3-7.3,0.1-11.7-0.4c-19-2-35.8-8.7-45.3-18c-5.4-5.4-7.5-9.8-7.6-15.9v-4.8l-11.8-7.9C75.8,161.8,74.6,160.7,73,157c-3.5-7.6,0.7-19.1,8.1-21.8c1-0.4,13.6-3.2,28.1-6.2c14.4-3.1,26.9-5.8,27.7-6.1c1.3-0.5,1.1-0.7-1.5-2.4c-10.5-6.7-20.8-9.9-32.7-10.3C98,110,92.7,110.2,90.8,110.6z"/><path fill="#fff" d="M123.5,137.1c-20,4.3-37.1,8-38,8.3c-1.1,0.4-1.9,1.5-2.4,3.4c-0.8,2.5-0.7,3,0.4,4.3c0.7,0.8,8.1,5.9,16.4,11.3c14.1,9.2,15.1,10,14.7,11.7c-1.2,4.9-1.3,9.5-0.4,11.6c1.9,4.7,11.3,11.1,21.5,14.7c15.2,5.4,35.1,6.3,43.7,2.1c3.8-1.9,5.3-3.8,6.2-8.1c0.5-2.2,1.1-4.3,1.3-4.5c0.5-0.6,16.6-4.2,18.8-4.2c1.1,0,1.9,0.9,3,3.4c2.3,5.2,2.4,8.4,0.6,10.7c-1.7,2.2-1.9,5.4-0.5,7.7c0.9,1.4,0.9,2.7,0,9.5c-1.8,12.8-0.4,22.3,3.9,25.6c1.9,1.5,5.5,1.9,6.3,0.6c0.9-1.3-0.2-3.9-1.9-4.6c-2.1-0.9-3.4-4.6-3.4-9.7l-0.1-4l1.4,2.9c1.4,3.1,5.4,7.6,6.8,7.6c3-0.1,3.7-3,1.3-5.6c-2.7-2.8-5-9.1-5.5-15.2c-0.4-4.4-0.3-5.3,1.1-7c2-2.6,1.9-5.7-0.2-7.9c-1.1-1.1-1.9-3-2.2-5.2c-0.2-1.9-1.1-4.9-1.9-6.6c-0.7-1.7-1.4-3.4-1.4-3.7c0-0.2,3.2-1.1,7-1.9c8.2-1.6,9.7-2.6,9.9-6.4c0.1-2.8,0-2.9-6.5-7.3c-12.9-8.8-62.4-41.3-62.8-41.2C160.1,129.4,143.5,132.9,123.5,137.1z M159.2,158.5c2,0.8,2.5,1.4,2.3,2.7c-0.1,1.4-0.7,1.7-3,1.9c-4.5,0.4-7.7-2.4-5.4-4.8C154.3,157.1,156.1,157.2,159.2,158.5z"/></g></g></g>
</svg>