<?xml version="1.0" encoding="utf-8"?>
<!-- Svg Vector Icons : http://www.onlinewebfonts.com/icon -->
<!DOCTYPE svg PUBLIC "-//W3C//DTD SVG 1.1//EN" "http://www.w3.org/Graphics/SVG/1.1/DTD/svg11.dtd">
<svg version="1.1" xmlns="http://www.w3.org/2000/svg" xmlns:xlink="http://www.w3.org/1999/xlink" x="0px" y="0px" viewBox="0 0 256 256" enable-background="new 0 0 256 256" xml:space="preserve">
<metadata> Svg Vector Icons : http://www.onlinewebfonts.com/icon </metadata>
<g><g><path fill="#fff" d="M224.3,183.6c-14.8-11.5-57.3-30.6-57.3-30.6l-27.6,50.8l-4.1-12.1l7.6-15.3l-15.1-15.3l-15.1,15.3l7.6,15.3l-4.9,12.4L88.5,153c0,0-42.5,19.1-57.3,30.6C16.5,195,10,229.9,10,229.9h236C246,229.9,241.7,197.1,224.3,183.6L224.3,183.6L224.3,183.6z"/><path fill="#fff" d="M71,83.2c0,31.5,25.6,57.1,57.1,57.1c31.5,0,57.1-25.6,57.1-57.1c0-31.5-25.6-57.1-57.1-57.1C96.5,26.1,71,51.7,71,83.2L71,83.2z"/></g></g>
</svg>