<svg version="1.1" xmlns="http://www.w3.org/2000/svg" xmlns:xlink="http://www.w3.org/1999/xlink" x="0px" y="0px" viewBox="0 0 256 256" enable-background="new 0 0 256 256" xml:space="preserve">
<metadata> Svg Vector Icons : http://www.onlinewebfonts.com/icon </metadata>
<g><g><path fill="goldenrod" stroke='black' stroke-width='7' stroke-linejoin='round' d="M246,212.9c0,6-4.9,10.8-11,10.8v0.1H21.2v-0.1c0,0-0.1,0-0.1,0c-6.1,0-11.1-4.9-11.1-10.8c0-2.2,0.7-4.2,1.8-5.9l-0.1,0l107-170l0,0c2-3,5.4-4.9,9.2-4.9c4,0,7.5,2.1,9.4,5.3l0.1,0l107,170l-0.1,0C245.4,209,246,210.9,246,212.9z M142.8,93.6c0-8-6.6-14.5-14.8-14.5c-8.1,0-14.8,6.5-14.8,14.5v54.2c0,8,6.6,14.5,14.8,14.5c8.1,0,14.8-6.5,14.8-14.5V93.6z M128,173.1c-8.1,0-14.8,6.5-14.8,14.5c0,8,6.6,14.5,14.8,14.5c8.1,0,14.8-6.5,14.8-14.5C142.8,179.6,136.1,173.1,128,173.1z"/></g></g>
</svg>